{"title":"Avatar 3d (2009) HSBS BrRip.mp4","uid":9037546,"size":2691942758,"categoryP":"video","categoryS":"3d","magnet":"?xt=urn:btih:e342b45a63eadf27fa62335f29436bfdfe440231&amp;dn=Avatar+3d+%282009%29+HSBS+BrRip.mp4&amp;tr=udp%3A%2F%2Ftracker.openbittorrent.com%3A80&amp;tr=udp%3A%2F%2Fopen.demonii.com%3A1337&amp;tr=udp%3A%2F%2Ftracker.coppersurfer.tk%3A6969&amp;tr=udp%3A%2F%2Fexodus.desync.com%3A6969","seeders":0,"leechers":1,"uploader":null,"files":1,"time":1381542589,"description":"General\nComplete name                            : E:3DAvatar 3d (2009) HSBS BrRip.mp4\nFormat                                   : MPEG-4\nFormat profile                           : Base Media\nCodec ID                                 : isom\nFile size                                : 2.51 GiB\nDuration                                 : 2h 41mn\nOverall bit rate mode                    : Variable\nOverall bit rate                         : 2 221 Kbps\nEncoded date                             : UTC 2012-04-18 07:33:16\nTagged date                              : UTC 2012-04-18 07:33:16\n\nVideo\nID                                       : 1\nFormat                                   : AVC\nFormat/Info                              : Advanced Video Codec\nFormat profile                           : &lt;a class=&quot;__cf_email__&quot; href=&quot;/cdn-cgi/l/email-protection&quot; data-cfemail=&quot;91d9f8f6f9d1dda5bfa1&quot;&gt;[email&amp;#160;protected]&lt;/a&gt;&lt;script cf-hash='f9e31' type=&quot;text/javascript&quot;&gt;\n/* &lt;![CDATA[ */!function(){try{var t=&quot;currentScript&quot;in document?document.currentScript:function(){for(var t=document.getElementsByTagName(&quot;script&quot;),e=t.length;e--;)if(t[e].getAttribute(&quot;cf-hash&quot;))return t[e]}();if(t&amp;&amp;t.previousSibling){var e,r,n,i,c=t.previousSibling,a=c.getAttribute(&quot;data-cfemail&quot;);if(a){for(e=&quot;&quot;,r=parseInt(a.substr(0,2),16),n=2;a.length-n;n+=2)i=parseInt(a.substr(n,2),16)^r,e+=String.fromCharCode(i);e=document.createTextNode(e),c.parentNode.replaceChild(e,c)}}}catch(u){}}();/* ]]&gt; */&lt;/script&gt;\nFormat settings, CABAC                   : Yes\nFormat settings, ReFrames                : 4 frames\nCodec ID                                 : avc1\nCodec ID/Info                            : Advanced Video Coding\nDuration                                 : 2h 41mn\nBit rate mode                            : Variable\nBit rate                                 : 2 123 Kbps\nMaximum bit rate                         : 25.0 Mbps\nWidth                                    : 1 916 pixels\nHeight                                   : 1 078 pixels\nDisplay aspect ratio                     : 16:9\nFrame rate mode                          : Constant\nFrame rate                               : 23.976 fps\nColor space                              : YUV\nChroma subsampling                       : 4:2:0\nBit depth                                : 8 bits\nScan type                                : Progressive\nBits/(Pixel*Frame)                       : 0.043\nStream size                              : 2.39 GiB (96%)\nTitle                                    : RED_BIRD_3D_WW Title852\nWriting library                          : x264 core 120 r2120 0c7dab9\nEncoding settings                        : cabac=1 // deblock=1:-1:-1 / \nAudio\nID                                       : 2\nFormat                                   : AAC\nFormat/Info                              : Advanced Audio Codec\nFormat profile                           : LC\nCodec ID                                 : 40\nDuration                                 : 2h 41mn\nBit rate mode                            : Variable\nBit rate                                 : 96.0 Kbps\nMaximum bit rate                         : 101 Kbps\nChannel(s)                               : 2 channels\nChannel positions                        : Front: L R\nSampling rate                            : 48.0 KHz\nCompression mode                         : Lossy\nStream size                              : 111 MiB (4%)\nLanguage                                 : English\nEncoded date                             : UTC 2012-04-18 07:36:19\nTagged date                              : UTC 2012-04-18 07:36:52\n\n &lt;a href=&quot;\nhttp://www.imdb.com/title/tt0499549/?ref_=fn_al_tt_1&quot; rel=&quot;nofollow&quot; target=&quot;_NEW&quot;&gt;\nhttp://www.imdb.com/title/tt0499549/?ref_=fn_al_tt_1&lt;/a&gt;","torrent":{"xt":"urn:btih:e342b45a63eadf27fa62335f29436bfdfe440231","amp;dn":"Avatar+3d+%282009%29+HSBS+BrRip.mp4","amp;tr":["udp%3A%2F%2Ftracker.openbittorrent.com%3A80","udp%3A%2F%2Fopen.demonii.com%3A1337","udp%3A%2F%2Ftracker.coppersurfer.tk%3A6969","udp%3A%2F%2Fexodus.desync.com%3A6969"],"infoHash":"e342b45a63eadf27fa62335f29436bfdfe440231","infoHashBuffer":{"type":"Buffer","data":[227,66,180,90,99,234,223,39,250,98,51,95,41,67,107,253,254,68,2,49]},"announce":[],"urlList":[]}}